<svg width="163" height="163" viewBox="0 0 163 163" fill="none" xmlns="http://www.w3.org/2000/svg">
<g filter="url(#filter0_d)">
<rect x="40" y="40" width="43" height="43" rx="21.5" fill="white"/>
</g>
<g clip-path="url(#clip0)">
<path d="M56.9735 57.2627L55.3769 57.386C54.9326 57.4204 54.537 57.6532 54.2913 58.0248L52.45 60.8097C52.2636 61.0915 52.234 61.4442 52.3707 61.7532C52.5074 62.0621 52.7883 62.2774 53.1221 62.3292L54.584 62.5556C54.926 60.7408 55.7446 58.9305 56.9735 57.2627Z" fill="#FF4386" fill-opacity="0.35"/>
<path d="M60.4447 68.4163L60.6711 69.8782C60.7229 70.212 60.9382 70.4929 61.2471 70.6296C61.3756 70.6865 61.5117 70.7145 61.647 70.7145C61.8372 70.7145 62.026 70.6591 62.1906 70.5503L64.9755 68.709C65.3472 68.4633 65.58 68.0676 65.6143 67.6234L65.7376 66.0269C64.0698 67.2558 62.2595 68.0744 60.4447 68.4163Z" fill="#FF4386" fill-opacity="0.35"/>
<path d="M59.8948 67.4027C59.9456 67.4027 59.9966 67.3985 60.0476 67.39C60.8079 67.2629 61.5407 67.0488 62.2398 66.7684L56.2314 60.7601C55.9511 61.4592 55.737 62.192 55.6098 62.9523C55.5597 63.252 55.6603 63.5574 55.8751 63.7722L59.2276 67.1248C59.406 67.3031 59.6468 67.4027 59.8948 67.4027Z" fill="#FF4386" fill-opacity="0.35"/>
<path d="M69.2449 60.4563C70.7152 57.6138 70.7697 54.6099 70.6928 53.2012C70.6665 52.7185 70.2817 52.3336 69.799 52.3073C69.5696 52.2948 69.2977 52.2858 68.9913 52.2858C67.416 52.2858 64.9235 52.5244 62.5438 53.7552C60.6527 54.7334 58.1729 56.8873 56.7098 59.7178C56.7271 59.7313 56.744 59.7456 56.7599 59.7616L63.2386 66.2403C63.2546 66.2562 63.2688 66.2731 63.2823 66.2903C66.1129 64.8272 68.2668 62.3474 69.2449 60.4563ZM63.0009 56.1817C64.0534 55.1292 65.7659 55.1291 66.8185 56.1817C67.3284 56.6915 67.6091 57.3694 67.6091 58.0905C67.6091 58.8115 67.3284 59.4894 66.8185 59.9993C66.2923 60.5255 65.6009 60.7886 64.9097 60.7887C64.2183 60.7887 63.5272 60.5256 63.0009 59.9993C62.491 59.4894 62.2102 58.8115 62.2102 58.0905C62.2102 57.3694 62.491 56.6915 63.0009 56.1817Z" fill="#FF4386" fill-opacity="0.35"/>
<path d="M63.7643 59.2359C64.3958 59.8674 65.4234 59.8674 66.0549 59.2359C66.3608 58.93 66.5293 58.5232 66.5293 58.0906C66.5293 57.6579 66.3608 57.2512 66.0549 56.9453C65.7392 56.6295 65.3244 56.4717 64.9096 56.4717C64.4949 56.4717 64.0801 56.6295 63.7643 56.9453C63.4584 57.2512 63.2899 57.6579 63.2899 58.0906C63.2899 58.5232 63.4584 58.93 63.7643 59.2359Z" fill="#FF4386" fill-opacity="0.35"/>
<path d="M52.8367 67.4725C52.9748 67.4725 53.113 67.4198 53.2184 67.3144L54.9811 65.5517C55.192 65.3408 55.192 64.999 54.9811 64.7881C54.7703 64.5773 54.4284 64.5773 54.2176 64.7881L52.4549 66.5508C52.244 66.7617 52.244 67.1035 52.4549 67.3144C52.5603 67.4198 52.6985 67.4725 52.8367 67.4725Z" fill="#FF4386" fill-opacity="0.35"/>
<path d="M56.5965 66.4034C56.3857 66.1925 56.0438 66.1925 55.833 66.4034L52.444 69.7923C52.2332 70.0032 52.2332 70.345 52.444 70.5559C52.5494 70.6613 52.6876 70.714 52.8258 70.714C52.964 70.714 53.1022 70.6613 53.2076 70.5558L56.5965 67.1669C56.8073 66.9561 56.8073 66.6142 56.5965 66.4034Z" fill="#FF4386" fill-opacity="0.35"/>
<path d="M57.4484 68.0195L55.6857 69.7822C55.4749 69.993 55.4749 70.3348 55.6857 70.5457C55.7911 70.6511 55.9293 70.7038 56.0675 70.7038C56.2056 70.7038 56.3438 70.6512 56.4492 70.5457L58.2119 68.783C58.4228 68.5721 58.4228 68.2303 58.2119 68.0195C58.0011 67.8086 57.6592 67.8086 57.4484 68.0195Z" fill="#FF4386" fill-opacity="0.35"/>
</g>
<defs>
<filter id="filter0_d" x="0" y="0" width="163" height="163" filterUnits="userSpaceOnUse" color-interpolation-filters="sRGB">
<feFlood flood-opacity="0" result="BackgroundImageFix"/>
<feColorMatrix in="SourceAlpha" type="matrix" values="0 0 0 0 0 0 0 0 0 0 0 0 0 0 0 0 0 0 127 0"/>
<feOffset dx="20" dy="20"/>
<feGaussianBlur stdDeviation="30"/>
<feColorMatrix type="matrix" values="0 0 0 0 0.291667 0 0 0 0 0.374167 0 0 0 0 0.666667 0 0 0 0.14 0"/>
<feBlend mode="normal" in2="BackgroundImageFix" result="effect1_dropShadow"/>
<feBlend mode="normal" in="SourceGraphic" in2="effect1_dropShadow" result="shape"/>
</filter>
<clipPath id="clip0">
<rect x="52.2858" y="52.2858" width="18.4286" height="18.4286" fill="white"/>
</clipPath>
</defs>
</svg>
