<svg width="166" height="166" viewBox="0 0 166 166" fill="none" xmlns="http://www.w3.org/2000/svg">
<g filter="url(#filter0_d)">
<rect x="40" y="40" width="46" height="46" rx="23" fill="white"/>
</g>
<g clip-path="url(#clip0)">
<path d="M58.6874 69.7767C58.6874 68.4177 57.5822 67.3125 56.2232 67.3125C54.8641 67.3125 53.7589 68.4177 53.7589 69.7767V71.0089C53.7589 71.6881 53.1649 72.2821 52.4857 72.2821V73.5142H54.991C57.0293 73.5142 58.6874 71.815 58.6874 69.7767Z" fill="#FF9344" fill-opacity="0.35"/>
<path d="M62.797 57.6448C62.4682 57.7332 62.2728 58.0699 62.3614 58.3992C62.4463 58.7161 62.7714 58.9245 63.1159 58.8348C63.4469 58.7458 63.6391 58.4074 63.5514 58.0804C63.4625 57.7499 63.1222 57.5571 62.797 57.6448Z" fill="#FF9344" fill-opacity="0.35"/>
<path d="M59.3119 62.3199C59.6388 62.4066 59.9771 62.2164 60.0663 61.8844C60.1553 61.5524 59.9573 61.2175 59.6313 61.1299H59.6307C59.456 61.0828 59.4087 61.1182 59.2852 61.1586C59.2921 61.5299 59.297 61.9151 59.2996 62.3139C59.3041 62.3152 59.3073 62.3187 59.3119 62.3199Z" fill="#FF9344" fill-opacity="0.35"/>
<path d="M66.1024 67.6008C66.0133 67.2695 65.6733 67.078 65.348 67.1658C65.0135 67.2557 64.8254 67.597 64.9124 67.9202C65.0002 68.2481 65.3347 68.4419 65.6668 68.3558C65.9956 68.2674 66.191 67.9307 66.1024 67.6014V67.6008Z" fill="#FF9344" fill-opacity="0.35"/>
<path d="M68.1528 59.9512C68.3929 59.7106 68.3929 59.3195 68.1528 59.0794C67.9126 58.8392 67.5223 58.8383 67.281 59.0794C67.041 59.3195 67.041 59.7112 67.2817 59.9512C67.5211 60.1907 67.9122 60.1907 68.1528 59.9512Z" fill="#FF9344" fill-opacity="0.35"/>
<path d="M64.2681 53.7269C62.2442 53.7999 60.3865 54.5999 58.9058 55.6156C59.0717 56.7454 59.189 58.1516 59.2514 59.8907C59.4821 59.8632 59.718 59.8778 59.949 59.9399C60.9363 60.2039 61.5215 61.216 61.2563 62.2032C61.0328 63.0383 60.2785 63.5737 59.4743 63.5737C59.4151 63.5737 59.3561 63.556 59.297 63.5503C59.2895 64.5357 59.2672 65.5106 59.2247 66.4416C59.8557 66.7038 60.3489 67.053 60.6709 67.5054C61.3231 68.4217 61.1492 69.4962 61.0806 69.8042C60.8522 70.8274 61.4554 71.869 62.489 72.0681C63.0732 72.18 63.6604 72.2353 64.2434 72.2353C69.3102 72.2353 73.5552 68.1196 73.514 62.9264C73.4708 57.6594 68.9129 53.5519 64.2681 53.7269ZM66.4092 58.2084C67.1312 57.4877 68.3031 57.4877 69.0239 58.2084C69.7447 58.9292 69.7447 60.1018 69.0239 60.8225V60.8231C68.3032 61.5426 67.1306 61.5427 66.4099 60.8231C65.6897 60.1017 65.6897 58.9292 66.4092 58.2084ZM61.1715 58.7174C60.9092 57.7434 61.4812 56.7212 62.4782 56.4547C63.4582 56.1918 64.4768 56.7765 64.7415 57.7614C65.0061 58.7466 64.4222 59.7603 63.4348 60.0247C62.4498 60.2886 61.4361 59.7072 61.1715 58.7174ZM65.9857 69.5461C65.001 69.8098 63.9865 69.2234 63.7224 68.2393C63.4578 67.2541 64.0416 66.2404 65.0291 65.976C66.0207 65.7122 67.029 66.2981 67.2924 67.2834C67.5578 68.2701 66.971 69.2826 65.9857 69.5461ZM70.7776 64.7541C70.5137 65.7414 69.4992 66.3257 68.5143 66.0608C67.5297 65.7972 66.9419 64.7866 67.2076 63.7975C67.4743 62.8012 68.4947 62.2292 69.4709 62.4908C70.4558 62.7549 71.0418 63.7705 70.7776 64.7541Z" fill="#FF9344" fill-opacity="0.35"/>
<path d="M69.1522 63.681C68.8295 63.594 68.4878 63.782 68.3978 64.1165C68.3088 64.4485 68.5068 64.7834 68.8328 64.871C69.1701 64.9581 69.5004 64.7604 69.5878 64.4354C69.6756 64.1076 69.4801 63.7688 69.1522 63.681Z" fill="#FF9344" fill-opacity="0.35"/>
<path d="M58.0639 63.6162C58.0657 63.41 58.0714 63.2071 58.0714 63.0001C58.0714 58.2226 57.7507 52.486 56.2232 52.486C54.6957 52.486 54.375 58.2226 54.375 63.0001C54.375 63.2071 54.3807 63.41 54.3824 63.6162H58.0639Z" fill="#FF9344" fill-opacity="0.35"/>
<path d="M56.2233 66.0801C56.8652 66.0801 57.4604 66.2593 57.9869 66.5483C58.0135 65.9954 58.0339 65.4259 58.0481 64.848H54.3984C54.4126 65.4259 54.4329 65.9954 54.4596 66.5483C54.9862 66.2592 55.5813 66.0801 56.2233 66.0801Z" fill="#FF9344" fill-opacity="0.35"/>
</g>
<defs>
<filter id="filter0_d" x="0" y="0" width="166" height="166" filterUnits="userSpaceOnUse" color-interpolation-filters="sRGB">
<feFlood flood-opacity="0" result="BackgroundImageFix"/>
<feColorMatrix in="SourceAlpha" type="matrix" values="0 0 0 0 0 0 0 0 0 0 0 0 0 0 0 0 0 0 127 0"/>
<feOffset dx="20" dy="20"/>
<feGaussianBlur stdDeviation="30"/>
<feColorMatrix type="matrix" values="0 0 0 0 0.291667 0 0 0 0 0.374167 0 0 0 0 0.666667 0 0 0 0.14 0"/>
<feBlend mode="normal" in2="BackgroundImageFix" result="effect1_dropShadow"/>
<feBlend mode="normal" in="SourceGraphic" in2="effect1_dropShadow" result="shape"/>
</filter>
<clipPath id="clip0">
<rect width="21.0286" height="21.0286" fill="white" transform="translate(52.4857 52.4857)"/>
</clipPath>
</defs>
</svg>
