<svg width="175" height="175" viewBox="0 0 175 175" fill="none" xmlns="http://www.w3.org/2000/svg">
<g filter="url(#filter0_d)">
<rect x="40" y="40" width="55" height="55" rx="27.5" fill="white" fill-opacity="0.6"/>
</g>
<g clip-path="url(#clip0)">
<path d="M60.631 61.1021L58.0319 61.3028C57.3087 61.3587 56.6646 61.7378 56.2647 62.3428L53.2672 66.8762C52.9639 67.335 52.9156 67.9092 53.1381 68.4121C53.3607 68.9151 53.818 69.2656 54.3614 69.3498L56.7412 69.7183C57.2979 66.7641 58.6305 63.8171 60.631 61.1021Z" fill="#374DB1"/>
<path d="M66.282 79.259L66.6506 81.6387C66.7348 82.1822 67.0853 82.6395 67.5882 82.862C67.7974 82.9545 68.0189 83.0002 68.2393 83.0002C68.5488 83.0002 68.8562 82.9101 69.1242 82.7329L73.6577 79.7355C74.2627 79.3355 74.6418 78.6913 74.6975 77.9682L74.8983 75.3691C72.1832 77.3697 69.2363 78.7023 66.282 79.259Z" fill="#374DB1"/>
<path d="M65.3868 77.609C65.4695 77.609 65.5525 77.6022 65.6355 77.5884C66.8732 77.3815 68.0661 77.0328 69.2041 76.5765L59.4232 66.7955C58.9668 67.9335 58.6182 69.1264 58.4113 70.3642C58.3297 70.8521 58.4933 71.3492 58.8431 71.699L64.3007 77.1566C64.5911 77.4469 64.983 77.609 65.3868 77.609Z" fill="#374DB1"/>
<path d="M80.6079 66.3009C83.0014 61.6735 83.09 56.7835 82.9649 54.4902C82.9221 53.7044 82.2956 53.0779 81.5098 53.0351C81.1363 53.0147 80.6938 53 80.195 53C77.6306 53 73.573 53.3884 69.6991 55.3921C66.6205 56.9845 62.5836 60.4908 60.2019 65.0987C60.23 65.1207 60.2575 65.144 60.2834 65.1699L70.8302 75.7167C70.8561 75.7426 70.8794 75.77 70.9013 75.7981C75.5092 73.4164 79.0155 69.3795 80.6079 66.3009ZM70.4431 59.3421C72.1565 57.6288 74.9444 57.6286 76.6578 59.3421C77.4879 60.1721 77.9449 61.2757 77.9449 62.4495C77.9449 63.6233 77.4879 64.7269 76.6578 65.5569C75.8013 66.4135 74.6757 66.8418 73.5505 66.842C72.425 66.842 71.2999 66.4137 70.4431 65.5569C69.6131 64.7269 69.156 63.6233 69.156 62.4495C69.156 61.2757 69.6131 60.1721 70.4431 59.3421Z" fill="#374DB1"/>
<path d="M71.6858 64.3141C72.7139 65.3421 74.3867 65.3422 75.4147 64.3141C75.9127 63.816 76.187 63.1539 76.187 62.4496C76.187 61.7453 75.9127 61.0832 75.4147 60.5852C74.9008 60.0712 74.2255 59.8142 73.5503 59.8142C72.8751 59.8142 72.1999 60.0712 71.6859 60.5852C71.1879 61.0832 70.9136 61.7453 70.9136 62.4496C70.9136 63.1539 71.1879 63.8161 71.6858 64.3141Z" fill="#374DB1"/>
<path d="M53.8968 77.7227C54.1217 77.7227 54.3466 77.6369 54.5182 77.4652L57.3877 74.5957C57.731 74.2525 57.731 73.696 57.3877 73.3528C57.0445 73.0095 56.488 73.0095 56.1448 73.3528L53.2753 76.2223C52.932 76.5655 52.932 77.122 53.2753 77.4652C53.4469 77.6369 53.6718 77.7227 53.8968 77.7227Z" fill="#374DB1"/>
<path d="M60.0173 75.9822C59.6741 75.6389 59.1176 75.6389 58.7743 75.9822L53.2574 81.4991C52.9142 81.8423 52.9142 82.3988 53.2574 82.742C53.4291 82.9136 53.654 82.9994 53.8789 82.9994C54.1039 82.9994 54.3288 82.9136 54.5004 82.742L60.0172 77.2251C60.3605 76.8819 60.3605 76.3254 60.0173 75.9822Z" fill="#374DB1"/>
<path d="M61.4041 78.6129L58.5347 81.4824C58.1914 81.8257 58.1914 82.3821 58.5347 82.7254C58.7063 82.897 58.9312 82.9828 59.1561 82.9828C59.381 82.9828 59.606 82.897 59.7775 82.7254L62.647 79.8559C62.9903 79.5126 62.9903 78.9561 62.647 78.6129C62.3039 78.2697 61.7473 78.2697 61.4041 78.6129Z" fill="#374DB1"/>
</g>
<defs>
<filter id="filter0_d" x="0" y="0" width="175" height="175" filterUnits="userSpaceOnUse" color-interpolation-filters="sRGB">
<feFlood flood-opacity="0" result="BackgroundImageFix"/>
<feColorMatrix in="SourceAlpha" type="matrix" values="0 0 0 0 0 0 0 0 0 0 0 0 0 0 0 0 0 0 127 0"/>
<feOffset dx="20" dy="20"/>
<feGaussianBlur stdDeviation="30"/>
<feColorMatrix type="matrix" values="0 0 0 0 0.291667 0 0 0 0 0.374167 0 0 0 0 0.666667 0 0 0 0.1 0"/>
<feBlend mode="normal" in2="BackgroundImageFix" result="effect1_dropShadow"/>
<feBlend mode="normal" in="SourceGraphic" in2="effect1_dropShadow" result="shape"/>
</filter>
<clipPath id="clip0">
<rect x="52.9999" y="53" width="30" height="30" fill="white"/>
</clipPath>
</defs>
</svg>
