<svg width="167" height="167" viewBox="0 0 167 167" fill="none" xmlns="http://www.w3.org/2000/svg">
<g filter="url(#filter0_d)">
<rect x="40" y="40" width="47" height="47" rx="23.5" fill="white" fill-opacity="0.45"/>
</g>
<g clip-path="url(#clip0)">
<path d="M74.1916 66.6793L71.8833 64.8688C71.9271 64.5187 71.9599 64.1632 71.9599 63.8022C71.9599 63.4412 71.9271 63.0856 71.8833 62.7356L74.1971 60.925C74.4049 60.7609 74.4651 60.4656 74.3283 60.2249L72.1404 56.4343C72.0036 56.1991 71.7192 56.1006 71.4731 56.1991L68.7491 57.2985C68.1857 56.8664 67.5676 56.5 66.9003 56.221L66.4901 53.322C66.4408 53.0649 66.2166 52.8625 65.9431 52.8625H61.5672C61.2938 52.8625 61.0695 53.0649 61.0257 53.322L60.6155 56.221C59.9482 56.5 59.3301 56.861 58.7667 57.2985L56.0427 56.1991C55.7966 56.1061 55.5122 56.1991 55.3754 56.4343L53.1874 60.2249C53.0507 60.4601 53.1109 60.7555 53.3187 60.925L55.627 62.7356C55.5832 63.0856 55.5504 63.4412 55.5504 63.8022C55.5504 64.1632 55.5832 64.5187 55.627 64.8688L53.3187 66.6793C53.1109 66.8434 53.0507 67.1388 53.1874 67.3794L55.3754 71.17C55.5122 71.4052 55.7966 71.5037 56.0427 71.4052L58.7667 70.3058C59.3301 70.7379 59.9481 71.1044 60.6154 71.3834L61.0257 74.2823C61.0694 74.5394 61.2937 74.7418 61.5672 74.7418H65.943C66.2165 74.7418 66.4408 74.5394 66.4846 74.2823L66.8948 71.3834C67.5621 71.1044 68.1802 70.7434 68.7436 70.3058L71.4675 71.4052C71.7137 71.4982 71.9981 71.4052 72.1348 71.17L74.3228 67.3794C74.4596 67.1443 74.3994 66.8489 74.1916 66.6793ZM63.7551 67.6311C61.6383 67.6311 59.9263 65.919 59.9263 63.8022C59.9263 61.6854 61.6383 59.9733 63.7551 59.9733C65.872 59.9733 67.584 61.6854 67.584 63.8022C67.584 65.919 65.872 67.6311 63.7551 67.6311Z" fill="#2DC7E3" fill-opacity="0.45"/>
</g>
<defs>
<filter id="filter0_d" x="0" y="0" width="167" height="167" filterUnits="userSpaceOnUse" color-interpolation-filters="sRGB">
<feFlood flood-opacity="0" result="BackgroundImageFix"/>
<feColorMatrix in="SourceAlpha" type="matrix" values="0 0 0 0 0 0 0 0 0 0 0 0 0 0 0 0 0 0 127 0"/>
<feOffset dx="20" dy="20"/>
<feGaussianBlur stdDeviation="30"/>
<feColorMatrix type="matrix" values="0 0 0 0 0.291667 0 0 0 0 0.374167 0 0 0 0 0.666667 0 0 0 0.1 0"/>
<feBlend mode="normal" in2="BackgroundImageFix" result="effect1_dropShadow"/>
<feBlend mode="normal" in="SourceGraphic" in2="effect1_dropShadow" result="shape"/>
</filter>
<clipPath id="clip0">
<rect width="21.8793" height="21.8793" fill="white" transform="translate(52.8181 52.8625)"/>
</clipPath>
</defs>
</svg>
