<svg width="257" height="51" viewBox="0 0 257 51" fill="none" xmlns="http://www.w3.org/2000/svg">
<path d="M147.7 6.1001H147.1V43.8001H147.7V6.1001Z" fill="white"/>
<path d="M215.7 28.6002V25.8002L212.7 21.2002H214.5L216.6 24.4002L218.7 21.2002H220.4L217.4 25.8002V28.6002H215.7Z" fill="white"/>
<path d="M222.1 28.6002V21.2002H227.8V22.5002H223.6V24.2002H226.3V25.5002H223.6V27.3002H227.8V28.6002H222.1Z" fill="white"/>
<path d="M229.5 28.6002L232.5 21.2002H234.3L237.3 28.6002H235.6L234.8 26.7002H231.7L230.9 28.6002H229.5ZM232.3 25.4002H234.4L233.4 22.7002L232.3 25.4002Z" fill="white"/>
<path d="M239.1 28.6002V21.2002H242.7C243.1 21.2002 243.4 21.3002 243.7 21.4002C244 21.5002 244.3 21.7002 244.5 21.9002C244.7 22.1002 244.9 22.3002 245 22.6002C245.1 22.9002 245.2 23.2002 245.2 23.5002C245.2 24.0002 245.1 24.4002 244.8 24.7002C244.5 25.1002 244.2 25.3002 243.7 25.5002L245.3 28.5002H243.6L242.1 25.7002H240.4V28.5002H239.1V28.6002ZM242.6 22.5002H240.7V24.5002H242.6C242.9 24.5002 243.2 24.4002 243.4 24.2002C243.6 24.0002 243.7 23.8002 243.7 23.5002C243.7 23.2002 243.6 23.0002 243.4 22.8002C243.3 22.6002 243 22.5002 242.6 22.5002Z" fill="white"/>
<path d="M247 27.4L247.9 26.3C248.3 26.7 248.7 26.9 249.1 27.1C249.5 27.3 249.9 27.4 250.4 27.4C250.9 27.4 251.2 27.3 251.5 27.1C251.8 26.9 251.9 26.7 251.9 26.4C251.9 26.1 251.8 25.9 251.6 25.8C251.4 25.7 251.1 25.6 250.7 25.5L249.2 25.2C248.6 25.1 248.1 24.9 247.8 24.5C247.5 24.1 247.3 23.7 247.3 23.2C247.3 22.5 247.6 22 248.1 21.6C248.6 21.2 249.3 21 250.2 21C250.7 21 251.3 21.1 251.8 21.3C252.3 21.5 252.8 21.7 253.2 22.1L252.4 23.2C252 22.9 251.6 22.7 251.2 22.5C250.8 22.3 250.4 22.3 250 22.3C249.6 22.3 249.3 22.4 249 22.5C248.8 22.7 248.6 22.9 248.6 23.1C248.6 23.3 248.7 23.5 248.8 23.6C249 23.7 249.2 23.8 249.6 23.9L251 24.1C251.7 24.2 252.3 24.5 252.7 24.8C253.1 25.1 253.3 25.6 253.3 26.2C253.3 26.9 253 27.5 252.4 27.9C251.8 28.3 251.1 28.5 250.1 28.5C249.5 28.5 248.9 28.4 248.3 28.2C247.7 28 247.4 27.8 247 27.4Z" fill="white"/>
<path d="M186.7 3.69961L173.5 28.8996L172.2 31.4996H175.4H183.7H185V30.1996V22.9996H191.7V46.0996H185L184.9 40.1996V38.1996H182.9H165.4L165.5 30.4996L179.5 3.59961H186.7" fill="white"/>
<path d="M229.5 30.6998C228.7 32.5998 227.5 34.1998 226.1 35.5998C224.7 36.9998 223 38.0998 221.2 38.8998C219.4 39.6998 217.4 40.0998 215.3 40.0998C213.2 40.0998 211.3 39.6998 209.5 38.8998C207.7 38.0998 206.1 37.0998 204.8 35.6998C203.5 34.3998 202.4 32.7998 201.7 30.9998C200.9 29.1998 200.5 27.1998 200.6 25.1998C200.6 23.0998 201 21.0998 201.8 19.2998C202.6 17.3998 203.8 15.7998 205.2 14.3998C206.6 12.9998 208.3 11.8998 210.1 11.0998C211.9 10.2998 213.9 9.8998 216 9.8998C218.1 9.8998 220 10.2998 221.8 11.0998C223.6 11.8998 225.2 12.8998 226.5 14.2998C227.8 15.5998 228.9 17.1998 229.6 18.9998V19.0998H236.6C236.4 18.1998 236 17.1998 235.7 16.2998C234.6 13.6998 233.1 11.4998 231.2 9.4998C229.3 7.5998 227.1 6.0998 224.5 4.9998C221.9 3.8998 219.1 3.2998 216.2 3.2998C213.2 3.2998 210.3 3.8998 207.7 4.9998C205 6.1998 202.6 7.7998 200.6 9.7998C198.6 11.7998 197 14.1998 195.8 16.8998C194.6 19.5998 194 22.3998 194 25.3998C194 28.3998 194.5 31.1998 195.6 33.7998C196.7 36.3998 198.2 38.6998 200.1 40.5998C202 42.4998 204.2 43.9998 206.8 45.0998C209.4 46.1998 212.2 46.7998 215.1 46.7998C218.1 46.7998 221 46.1998 223.6 45.0998C226.3 43.8998 228.7 42.2998 230.7 40.2998C232.7 38.2998 234.3 35.8998 235.5 33.1998C235.9 32.3998 236.2 31.5998 236.4 30.6998H229.5Z" fill="white"/>
<path fill-rule="evenodd" clip-rule="evenodd" d="M127.7 25.0998C121.3 38.2998 93 48.9998 64.7 48.9998C36.4 48.9998 18.5 38.2998 24.9 25.0998C31.2 11.9998 59.6 1.2998 87.9 1.2998C116.2 1.2998 134.1 11.9998 127.7 25.0998Z" fill="#151317"/>
<path fill-rule="evenodd" clip-rule="evenodd" d="M86.8 2.5C114 2.5 131.1 12.5 125 24.8C118.9 37.1 91.7 47.1 64.5 47.1C37.3 47.1 20.2 37.1 26.3 24.8C32.5 12.5 59.7 2.5 86.8 2.5Z" fill="#647387"/>
<path fill-rule="evenodd" clip-rule="evenodd" d="M82.5 4.6001C107.1 4.6001 122.5 13.6001 116.9 24.6001C111.3 35.6001 86.7 44.6001 62.2 44.6001C37.6 44.6001 22.2 35.6001 27.7 24.6001C31.3 17.5001 42.8 11.3001 57 7.7001C58 7.4001 59 7.2001 60.1 7.0001C67.3 5.4001 74.9 4.6001 82.5 4.6001Z" fill="#151317"/>
<path fill-rule="evenodd" clip-rule="evenodd" d="M114.7 15.5002C115.9 17.5002 116.1 19.8002 115.2 22.1002C114.3 23.9002 113.3 25.3002 111.7 26.7002C103.7 34.0002 85.6 39.5002 67.5 39.5002C46.2 39.5002 32.8 31.9002 37.6 22.6002C41 16.3002 52.3 10.5002 65.8 7.6002C67.4 7.2002 69 7.0002 70.6 6.7002C67.4 7.0002 64.3 7.5002 61.2 8.1002C46.2 11.4002 33.5 16.6002 29.8 23.9002C24.5 34.6002 39.4 43.2002 63 43.2002C82.3 43.2002 101.7 37.4002 111 29.5002C112.1 28.6002 113.3 27.3002 114.2 26.0002C114.6 25.5002 114.9 24.9002 115.2 24.4002C117 21.2002 116.6 18.1002 114.7 15.5002Z" fill="#1254FF"/>
<path fill-rule="evenodd" clip-rule="evenodd" d="M15.7 22.9001C15.3 23.6001 14.8 24.1001 14.4 24.4001C13.9 24.8001 13.3 25.0001 12.5 25.0001C12 25.0001 11.6 24.9001 11.5 24.7001C11.5 24.7001 11.3 24.0001 12 21.8001C12.5 20.4001 13 19.3001 13.6 18.7001C14.4 17.9001 15.2 17.6001 16.1 17.6001C16.4 17.6001 16.7 17.6001 16.8 17.7001C16.9 17.8001 17 17.8001 17 18.2001L17.1 19.9001H25C24.5 20.5001 24.1 21.2001 23.8 22.0001H16.2L15.7 22.9001ZM34.6 23.4001C34.3 24.3001 33.9 25.0001 33.5 25.3001C33.1 25.6001 32.7 25.8001 32.3 25.8001C32.2 25.8001 32.2 25.8001 32.1 25.8001C32.1 25.7001 32.1 25.3001 32.3 24.5001C32.5 23.7001 32.9 23.0001 33.4 22.6001C33.8 22.3001 34.2 22.1001 34.6 22.1001C34.7 22.1001 34.7 22.1001 34.7 22.1001C34.8 22.3001 34.8 22.6001 34.6 23.4001ZM53.2 23.4001C53 24.2001 52.6 24.8001 52.3 25.1001C52 25.3001 51.8 25.5001 51.6 25.5001C51.6 25.5001 51.6 25.5001 51.5 25.5001C51.5 25.4001 51.5 25.1001 51.7 24.6001C52 23.6001 52.4 23.1001 52.6 22.9001C52.9 22.7001 53.1 22.5001 53.4 22.5001C53.4 22.6001 53.4 22.9001 53.2 23.4001ZM108.1 15.2001L110.2 8.6001L99.5 13.0001L99.2 13.1001L98.5 15.2001H96.4L96.3 15.5001C95.4 15.1001 94.5 14.9001 93.6 14.9001C92.9 14.9001 92.2 15.0001 91.6 15.2001H83.3L81.7 20.2001C81.7 20.0001 81.7 19.8001 81.7 19.6001C81.6 18.5001 81.2 17.5001 80.6 16.9001C79.8 16.0001 78.7 15.4001 77.4 15.2001C76.4 15.0001 75 14.9001 73 14.9001C71.9 14.9001 70.8 15.0001 69.7 15.1001C68.5 15.3001 67.6 15.5001 66.9 15.9001C65.9 16.4001 65 16.9001 64.3 17.5001C63.7 18.0001 63.2 18.7001 62.7 19.6001C62.6 19.1001 62.4 18.5001 62.2 18.1001C61.5 16.7001 60 14.9001 56.6 14.9001C55.8 14.9001 55 15.0001 54.2 15.2001H45.1L43.8 19.4001C43.6 19.0001 43.4 18.5001 43.2 18.1001C41.8 15.9001 39.3 14.8001 35.7 14.8001C32.7 14.8001 30.1 15.6001 27.8 17.2001C27.4 17.5001 27 17.8001 26.6 18.1001C26.6 15.0001 25.8 12.8001 24 11.4001C22.5 10.1001 20.3 9.5001 17.2 9.5001C13.6 9.5001 10.3 10.5001 7.70001 12.4001C5.00001 14.3001 3.10001 17.1001 2.10001 20.6001C1.20001 23.3001 1.10001 25.7001 1.80001 27.6001C2.50001 29.6001 3.70001 31.0001 5.40001 31.8001C6.90001 32.5001 8.90001 32.9001 11.4 32.9001C13.5 32.9001 15.3 32.6001 16.8 32.0001C18.3 31.4001 19.8 30.6001 21.1 29.4001C21.7 28.9001 22.4 28.1001 23 27.4001C23.3 28.9001 24.1 30.0001 24.7 30.6001C26.2 32.1001 28.4 32.8001 31.3 32.8001C34.3 32.8001 37 32.0001 39.3 30.4001C39.9 30.0001 40.4 29.6001 40.9 29.1001L38 38.0001H47.5L49.2 32.5001C50 32.8001 51 33.0001 52 33.0001C54.2 33.0001 56.3 32.3001 58.2 30.8001C58.7 30.4001 59.2 29.9001 59.7 29.4001C59.9 30.1001 60.2 30.7001 60.7 31.3001C61.7 32.5001 63.4 33.1001 65.7 33.1001C67.2 33.1001 68.7 32.9001 70 32.4001C70.2 32.3001 70.4 32.2001 70.7 32.1001L70.9 32.7001H87.3L89.2 26.8001C90 24.3001 90.7 23.4001 91 23.0001C91.3 22.7001 91.6 22.7001 91.8 22.7001C91.8 22.7001 92 22.7001 92.5 22.9001L93.8 23.5001L94.4 22.8001H96.2L95.4 25.3001C94.8 27.2001 94.6 28.5001 94.7 29.5001C94.9 30.7001 95.5 31.7001 96.5 32.3001C97.4 32.8001 98.6 33.1001 100.4 33.1001C101.7 33.1001 103.2 32.9001 104.8 32.6001L105.6 32.4001L106 32.3001L107.6 24.5001L104.7 25.3001L105.5 22.7001H108.6L110.9 15.2001H108.1Z" fill="#363A3F"/>
<path fill-rule="evenodd" clip-rule="evenodd" d="M16.5 22.4999L16.1 23.0999C15.6 23.7999 15.2 24.3999 14.7 24.6999C14.1 25.1999 13.4 25.3999 12.5 25.3999C11.8 25.3999 11.3 25.1999 11.1 24.8999C11 24.7999 10.8 24.0999 11.5 21.5999C12 20.0999 12.6 18.9999 13.2 18.2999C14 17.4999 15 17.0999 16.1 17.0999C16.5 17.0999 16.8 17.1999 17.1 17.2999C17.4 17.4999 17.5 17.6999 17.6 18.1999L17.7 19.3999H26C25.2 20.2999 24.5 21.2999 24 22.3999H16.5V22.4999ZM35 23.4999C34.7 24.4999 34.3 25.2999 33.8 25.6999C33.3 26.0999 32.8 26.2999 32.3 26.2999C31.9 26.2999 31.8 26.0999 31.7 25.9999C31.7 25.9999 31.5 25.5999 31.9 24.2999C32.2 23.3999 32.6 22.6999 33.1 22.1999C33.6 21.7999 34.1 21.5999 34.6 21.5999C35 21.5999 35.1 21.6999 35.1 21.7999C35.2 21.9999 35.4 22.2999 35 23.4999ZM51.3 24.3999C51.6 23.4999 52 22.7999 52.4 22.4999C52.8 22.1999 53.2 21.9999 53.6 21.9999C53.8 21.9999 53.8 21.9999 53.9 22.0999C53.9 22.1999 54 22.5999 53.7 23.4999C53.4 24.3999 53.1 25.0999 52.6 25.4999C52.2 25.7999 51.9 25.9999 51.6 25.9999C51.2 25.9999 51.1 25.8999 51.1 25.7999C51.1 25.6999 50.9 25.3999 51.3 24.3999ZM62 24.0999C62.2 23.3999 62.3 22.6999 62.4 22.0999L64.9 22.3999C64 22.6999 63.2 23.0999 62.6 23.5999C62.4 23.6999 62.2 23.8999 62 24.0999ZM108.5 22.1999L110.5 15.6999H107.4L109.4 9.3999L99.6 13.3999L98.9 15.5999H96.8L96.7 16.0999C95.7 15.5999 94.7 15.2999 93.7 15.2999C93 15.2999 92.4 15.3999 91.8 15.5999H83.7L78.9 30.9999V30.6999C78.8 30.0999 78.8 29.6999 78.8 29.5999C78.8 29.3999 78.9 29.0999 79.1 28.3999L81 22.2999C81.3 21.4999 81.4 20.6999 81.3 19.6999C81.2 18.6999 80.9 17.7999 80.3 17.2999C79.6 16.4999 78.6 15.9999 77.3 15.7999C76.3 15.5999 74.9 15.4999 73 15.4999C71.9 15.4999 70.8 15.5999 69.8 15.6999C68.6 15.8999 67.8 16.0999 67.1 16.3999C66.1 16.7999 65.3 17.2999 64.7 17.8999C64 18.4999 63.4 19.2999 62.9 20.3999L62.4 21.2999C62.4 20.1999 62.2 19.1999 61.8 18.3999C61.2 17.0999 59.8 15.4999 56.6 15.4999C55.5 15.4999 54.5 15.6999 53.4 16.0999L53.5 15.7999H45.4L43.6 21.4999C43.6 20.3999 43.3 19.3999 42.7 18.4999C41.4 16.4999 39 15.4999 35.6 15.4999C32.7 15.4999 30.2 16.2999 28 17.7999C27.3 18.2999 26.6 18.8999 26.1 19.4999V18.2999C26.1 15.3999 25.3 13.2999 23.7 11.9999C22.3 10.7999 20.2 10.1999 17.2 10.1999C13.7 10.1999 10.5 11.1999 7.90001 12.9999C5.30001 14.8999 3.50001 17.5999 2.40001 20.9999C1.60001 23.5999 1.50001 25.8999 2.10001 27.6999C2.80001 29.5999 3.90001 30.8999 5.40001 31.5999C6.80001 32.2999 8.80001 32.6999 11.2 32.6999C13.2 32.6999 15 32.3999 16.4 31.8999C17.9 31.3999 19.3 30.4999 20.5 29.3999C21.3 28.5999 22.3 27.5999 23 26.4999C23.1 28.4999 23.9 29.7999 24.7 30.5999C26.1 31.9999 28.2 32.6999 30.9 32.6999C33.8 32.6999 36.4 31.8999 38.6 30.3999C39.8 29.4999 40.8 28.4999 41.6 27.3999L38.4 37.6999H46.9L48.7 31.9999C48.8 32.0999 48.9 32.0999 49 32.1999C49.8 32.5999 50.8 32.7999 51.8 32.7999C53.9 32.7999 55.9 32.0999 57.7 30.6999C58.5 30.0999 59.2 29.2999 59.9 28.3999C59.8 29.6999 60.4 30.5999 60.9 31.1999C61.9 32.2999 63.4 32.7999 65.6 32.7999C67.1 32.7999 68.5 32.5999 69.7 32.0999C70.1 31.9999 70.4 31.7999 70.8 31.5999L71.1 32.3999H87L88.7 26.7999C89.5 24.3999 90.2 23.2999 90.7 22.7999C91.1 22.4999 91.4 22.2999 91.8 22.2999C91.9 22.2999 92.2 22.2999 92.7 22.5999L93.6 22.9999L94.1 22.3999H96.8L95.8 25.4999C95.2 27.2999 95 28.5999 95.2 29.4999C95.4 30.5999 95.9 31.4999 96.8 31.9999C97.6 32.4999 98.8 32.6999 100.5 32.6999C101.8 32.6999 103.2 32.4999 104.8 32.1999L105.7 31.9999L107.1 25.2999L105 25.8999C104.7 25.9999 104.4 26.0999 104.2 26.0999L105.4 22.2999H108.5V22.1999Z" fill="#151317"/>
<path fill-rule="evenodd" clip-rule="evenodd" d="M19.9 28.3C21.1 27.2 22.5 25.4 23.2 23.9H17.2C16.7 24.7 16.1 25.4 15.5 25.9C14.7 26.5 13.7 26.9 12.5 26.9C11.3 26.9 10.4 26.5 9.99998 25.7C9.49998 24.9 9.69998 23.4 10.3 21.3C10.9 19.6 11.5 18.3 12.4 17.5C13.5 16.4 14.8 15.9 16.2 15.9C16.8 15.9 17.4 16 17.8 16.3C18.6 16.7 18.9 17.4 19 18.3H25C25 16.4 24.7 14.3 23.1 13C21.9 12 20.1 11.5 17.5 11.5C14.2 11.5 11.4 12.4 8.99998 14.1C6.69998 15.8 4.99998 18.2 3.99998 21.4C3.19998 23.8 3.09998 25.7 3.69998 27.3C4.29998 28.8 5.09998 29.9 6.39998 30.5C7.59998 31.1 9.29998 31.4 11.6 31.4C13.4 31.4 15 31.2 16.4 30.6C17.5 30 18.7 29.3 19.9 28.3ZM34.6 26.7C35.3 26.1 35.9 25.2 36.3 23.9C36.7 22.7 36.7 21.8 36.3 21.2C36 20.6 35.4 20.3 34.6 20.3C33.7 20.3 33 20.6 32.2 21.2C31.5 21.8 30.9 22.7 30.6 23.9C30.2 25.1 30.2 26 30.6 26.6C30.9 27.2 31.5 27.5 32.3 27.5C33.2 27.6 33.9 27.3 34.6 26.7ZM35.7 16.7C38.7 16.7 40.7 17.5 41.7 19.1C42.5 20.4 42.6 22 42 23.9C41.3 26 40 27.8 38.1 29.1C36.2 30.5 33.9 31.2 31.2 31.2C28.8 31.2 27 30.6 25.9 29.5C24.5 28.1 24.2 26.2 24.9 24C25.6 21.9 26.9 20.1 28.8 18.8C30.8 17.4 33.1 16.7 35.7 16.7ZM55 23.9C54.6 25.1 54.1 26 53.5 26.5C52.9 27 52.3 27.3 51.6 27.3C50.8 27.3 50.3 27 50 26.5C49.7 26 49.7 25.1 50 24C50.4 22.8 50.9 21.9 51.5 21.4C52.2 20.9 52.8 20.6 53.6 20.6C54.3 20.6 54.7 20.8 55 21.4C55.4 21.9 55.3 22.7 55 23.9ZM60.6 18.8C59.9 17.4 58.6 16.7 56.6 16.7C55.6 16.7 54.6 16.9 53.7 17.3C53 17.6 52.1 18.2 51.1 19L51.7 17H46.4L40.4 36.2H46.1L48.2 29.6C48.6 30.2 49.1 30.6 49.8 30.8C50.4 31.1 51.2 31.2 52.1 31.2C53.9 31.2 55.6 30.6 57.1 29.4C58.7 28.2 59.8 26.4 60.5 24.1C61.3 22 61.3 20.2 60.6 18.8ZM72.2 26.8C72.6 26.4 72.8 25.8 73.1 25.2L73.4 24.3C72.5 24.6 71.7 24.8 70.7 25C69.5 25.3 68.6 25.6 68.2 25.9C67.8 26.2 67.5 26.5 67.4 26.9C67.3 27.3 67.3 27.7 67.5 27.9C67.7 28.2 68.1 28.3 68.7 28.3C69.4 28.3 70 28.2 70.6 27.9C71.4 27.5 71.9 27.2 72.2 26.8ZM79.3 18.1C79.7 18.5 79.9 19 79.9 19.7C79.9 20.4 79.9 21.1 79.7 21.8L77.8 27.9C77.6 28.6 77.5 29.1 77.5 29.4C77.5 29.8 77.5 30.2 77.6 30.8H72.3C72.2 30.4 72.1 30.2 72.1 30C72.1 29.8 72.1 29.5 72.2 29.1C71.3 29.8 70.4 30.2 69.5 30.5C68.4 30.9 67.1 31.1 65.8 31.1C64 31.1 62.8 30.7 62.1 29.9C61.4 29.1 61.3 28.2 61.6 27.1C61.9 26.1 62.5 25.2 63.4 24.5C64.3 23.8 65.7 23.3 67.6 23C69.9 22.6 71.3 22.3 72 22.2C72.7 22 73.4 21.8 74.2 21.6C74.4 20.9 74.4 20.5 74.2 20.2C74 19.9 73.5 19.8 72.8 19.8C71.9 19.8 71.1 19.9 70.6 20.2C70.2 20.4 69.8 20.8 69.3 21.4L64 21C64.5 20.1 65 19.4 65.6 18.9C66.1 18.4 66.8 18 67.7 17.6C68.3 17.3 69.1 17.1 70 17C71 16.9 72 16.8 73 16.8C74.7 16.8 76.1 16.9 77 17.1C78.1 17.1 78.8 17.5 79.3 18.1ZM84.7 17H90L89.3 19.3C90.1 18.3 90.9 17.7 91.5 17.3C92.2 16.9 92.9 16.7 93.7 16.7C94.6 16.7 95.4 16.9 96.2 17.4L93.3 21.2C92.7 20.9 92.2 20.8 91.8 20.8C91 20.8 90.4 21.1 89.8 21.6C89 22.4 88.2 23.9 87.5 26.2L86 30.9H80.3L84.7 17ZM105.6 17L107.3 11.7L100.7 14.4L99.9 17H97.8L96.6 20.9H98.7L97.2 25.8C96.7 27.4 96.5 28.5 96.6 29.2C96.7 29.9 97 30.4 97.6 30.8C98.2 31.1 99.2 31.3 100.6 31.3C101.8 31.3 103.2 31.2 104.7 30.9L105.5 27.2C104.7 27.4 104 27.6 103.6 27.6C103.1 27.6 102.8 27.4 102.8 27.1C102.8 26.9 102.8 26.5 103 25.9L104.5 21H107.6L108.8 17.1H105.6V17Z" fill="white"/>
</svg>
